<svg width="632" height="671" viewBox="0 0 632 671" fill="none" xmlns="http://www.w3.org/2000/svg">
<g filter="url(#filter0_i)">
<path d="M55.1698 332.883C146.918 404.533 93.3984 482.153 55.1698 512.008C-66.558 641.152 98.4284 699.07 177.233 641.152C352.95 512.008 385.143 670 528.332 670C642.884 670 633.516 581.444 614.514 537.166C595.511 492.888 574.273 488.393 614.514 393.933C664.815 275.858 600.094 189.314 503.182 207.428C425.651 221.919 414.758 172.752 406.604 150.068C310.027 -118.62 98.4284 46.0813 55.1698 92.7073C37.3404 111.925 -59.5159 243.32 55.1698 332.883Z" fill="#5C5C5C"/>
</g>
<mask id="mask0" mask-type="alpha" maskUnits="userSpaceOnUse" x="0" y="1" width="632" height="670">
<path d="M55.1698 333.883C146.918 405.533 93.3984 483.153 55.1698 513.008C-66.558 642.152 98.4284 700.07 177.233 642.152C352.95 513.008 385.143 671 528.332 671C642.884 671 633.516 582.444 614.514 538.166C595.511 493.888 574.273 489.393 614.514 394.933C664.815 276.858 600.094 190.314 503.182 208.428C425.651 222.919 414.758 173.752 406.604 151.068C310.027 -117.62 98.4284 47.0813 55.1698 93.7073C37.3404 112.925 -59.5159 244.32 55.1698 333.883Z" fill="#5C5C5C"/>
</mask>
<g mask="url(#mask0)">
<g filter="url(#filter1_d)">
<path d="M135.547 521.004C120.121 453.208 128.939 341.017 135.901 288.393C136.264 285.648 138.014 283.297 140.612 282.338C167.926 272.256 220.03 270 296.497 270C355.453 270 406.336 277.822 429.351 282.725C432.739 283.447 435.183 286.371 435.445 289.825C443.064 390.463 441.35 448.356 435.371 546.409C435.152 549.992 432.576 553.022 429.034 553.605C395.516 559.124 301.693 565.873 257.497 564C212.077 562.075 173.201 539.933 140.334 526.533C137.931 525.554 136.122 523.534 135.547 521.004Z" fill="#FAFAFA"/>
<path d="M295.497 271.5C357.143 271.5 409.962 280.052 431.324 284.877C432.237 285.083 432.336 286.25 431.459 286.575C403.822 296.816 296.634 298.5 259.497 298.5C222.342 298.5 173.764 291.01 138.949 285.995C137.954 285.852 137.773 284.537 138.711 284.177C165.771 273.806 218.181 271.5 295.497 271.5Z" fill="#EAE7E7"/>
<path d="M275.5 531.637C279.284 522.592 284.014 496.777 285.905 485H389.959C393.365 492.914 405.568 523.158 411.243 537.29C411.243 541.813 414.081 552.365 415.5 557.076C412.473 568.005 411.401 617.531 411.243 640.928C412 655.249 407.775 664.482 405.568 667.309C399.135 684.645 399.104 741.426 399.892 767.65C403.297 781.594 405.095 797.328 405.568 803.452C401.405 797.799 390.905 805.807 386.176 810.518C364.608 824.462 355.748 823.237 354.014 820.882C351.743 815.983 354.959 794.972 356.851 785.08C356.851 774.904 354.959 745.666 354.014 732.318C348.716 697.27 353.698 665.896 356.851 654.59C354.959 637.631 349.126 613.606 346.446 603.713C343.419 617.657 345.185 657.573 346.446 675.788C347.581 688.602 341.559 759.327 338.405 793.088L341.716 827.006C324.311 836.051 297.257 830.775 285.905 827.006C285.905 823.237 290.95 805.964 293.473 797.799C292.716 792.9 288.113 766.55 285.905 753.988C280.23 729.115 285.748 691.491 289.216 675.788C288.838 667.497 283.383 629.622 280.703 611.721C279.568 593.255 276.761 550.637 275.5 531.637Z" fill="#F8930D"/>
<path d="M284.5 489.496V474C320.167 487.148 368.661 482.609 390.092 478.226L391.5 489.496C360.339 504.898 307.808 495.913 284.5 489.496Z" fill="#DA4C06"/>
<path d="M262.596 324.175L297.959 318.032C300.222 317.722 303.774 315.225 304.56 313.78L372.929 310C375.569 312.646 393.832 315.197 402.634 316.142C423.38 318.032 430.453 341.5 431.396 352.997C432.15 363.581 447.113 397.726 454.5 413.476C469.833 406.389 505.2 384.37 524 352.997C530.333 355.331 542.6 363.2 541 376C475 452.22 446 494 412.536 431.431C409.895 424.627 398.862 408.436 393.675 401.191L388.96 406.861C388.96 411.775 385.817 439.148 384.245 452.22L388.96 479.625C342.187 489.075 300.003 481.042 284.757 475.845C283.814 465.923 269 421.472 269 401.191C269 380.91 242.062 434 230.062 443C235.5 460.5 234.323 510.5 251.499 530.5C247.166 534.167 235.399 540.4 222.999 536C189 458 173.049 440.042 199.5 406.861C204.773 400.246 214.884 386.237 218.499 376L230.062 354.414C233.834 332.207 252.223 326.065 262.596 324.175Z" fill="#FF5400"/>
<rect x="275.418" y="219.858" width="25.4403" height="25.4403" rx="12" transform="rotate(7.14369 275.418 219.858)" fill="#F19857"/>
<rect x="370.583" y="220.801" width="25.4403" height="25.4403" rx="12" transform="rotate(7.14369 370.583 220.801)" fill="#F19857"/>
<path d="M311.274 308.703C312.781 304.201 313.158 283.692 313.158 274H356.016V301.669C358.277 310.673 367.947 312.611 372.5 312.455C367.225 335.341 348.638 341.687 340.003 342C315.136 342 302.64 326.993 299.5 319.49C306.282 317.989 310.175 311.674 311.274 308.703Z" fill="url(#paint0_linear)"/>
<path d="M283.086 218.601C283.086 222.015 284.744 232.982 285.573 238.039C288.059 243.254 376.59 278.809 386.537 236.616C387.516 232.462 387.221 223.473 388.526 218.601C389.839 213.701 392.752 209.128 393.5 206.275C393.5 192.527 389.034 185.66 386.537 183.994C386.537 183.235 390.184 182.413 392.008 182.097C388.825 171.099 376.755 161.712 371.119 158.393C371.516 156.876 376.258 155.549 378.579 155.075C377.783 152.041 371.119 143.697 364.155 145.593C361.397 146.344 356.198 144.961 353.711 143.697C352.915 140.284 355.369 137.534 356.695 136.586C352.716 136.586 345.421 141.327 342.271 143.697C327.848 133.741 308.451 136.112 311.932 136.586C314.717 136.965 320.387 141.485 322.874 143.697C313.723 141.801 296.845 147.332 289.551 150.334L285.573 147.964C280.401 153.653 281.76 163.924 283.086 168.349C279.438 169.455 272.442 172.142 273.635 174.038C274.829 175.934 278.443 180.517 280.102 182.571C278.941 188.734 276.719 201.819 277.117 204.853C277.515 207.887 281.262 215.283 283.086 218.601Z" fill="black" stroke="black"/>
<circle cx="299.273" cy="174.325" r="1.41335" transform="rotate(7.14369 299.273 174.325)" fill="white"/>
<path d="M297.85 272.988C287.711 267.324 287.367 222.49 287.523 200.781C287.68 179.071 310.054 178.127 317.095 184.734C331.681 198.421 348.358 190.359 353.709 184.735C364.036 173.88 381.874 188.982 381.874 200.781C384.127 226.832 379.996 271.1 374.363 272.988C368.73 274.875 358.247 283.528 353.709 287.618C347.607 293.118 330.708 291.016 326.484 287.618C314.749 278.179 305.517 275.819 297.85 272.988Z" fill="#F5AB75"/>
<path d="M357.5 250C348.465 256.625 327.069 258.931 317.5 259.255C321.641 269.388 335.382 268.998 341.029 268.998C357.5 267.537 356.088 256.333 357.5 250Z" fill="white" stroke="black"/>
<path d="M337.5 212C338.229 216.4 339.775 223.314 340.125 227.086C340.475 230.857 343.188 236.2 344.5 238.4C343.631 242.051 342.262 243.59 337.5 245" stroke="black"/>
<path d="M324.5 206.25C314.228 205.167 298.5 207.457 298.5 216" stroke="black" stroke-width="2" stroke-linecap="round"/>
<path d="M344.5 205.972C352.353 204.144 367.577 204.418 369.5 211" stroke="black" stroke-width="2" stroke-linecap="round"/>
<rect x="314.654" y="219.858" width="3.76893" height="12.249" rx="1.88446" fill="#131313"/>
<rect x="352.539" y="220.614" width="3.76893" height="12.249" rx="1.88446" fill="#131313"/>
<path d="M303.407 171.937C305.942 170.788 311.94 169.69 315.661 174.495C317.943 177.188 323.986 182.269 329.905 181.055" stroke="white" stroke-width="2" stroke-linecap="round"/>
<ellipse cx="310.866" cy="238.557" rx="9.64362" ry="6.23999" transform="rotate(7.14369 310.866 238.557)" fill="#E99E72"/>
<ellipse rx="9.64362" ry="6.23999" transform="matrix(-0.992237 0.124358 0.124358 0.992237 361.746 238.557)" fill="#E99E72"/>
<ellipse rx="9.64362" ry="6.23999" transform="matrix(-0.999938 0.0111617 0.0111617 0.999938 341.27 284.818)" fill="#E99E72"/>
<path d="M353.46 571.857C349.284 576.532 347.08 595.234 346.5 604C350.212 592.312 354.233 580.623 356.94 577.117C367.96 571.857 372.6 563.675 375.5 559C370.667 560.558 357.636 567.182 353.46 571.857Z" fill="url(#paint1_linear)" fill-opacity="0.21"/>
<path d="M393.5 401C401.9 391.8 406.667 370.167 408 360.5C416 388.5 402 412.5 400 409C398.4 406.2 395 402.5 393.5 401Z" fill="url(#paint2_linear)" fill-opacity="0.1"/>
<path d="M524.02 332.695C520.361 345.664 522.496 357.2 524.02 361.347C533.167 388.793 546.506 369.264 557.178 369.264C571.66 361.347 554.891 342.12 552.223 332.695C550.089 325.155 541.171 329.554 536.978 332.695C537.588 313.091 528.594 310.955 524.02 312.337C527.679 320.782 525.545 329.428 524.02 332.695Z" fill="url(#paint3_linear)"/>
<path d="M294.5 315.501C284.9 314.301 261.833 321.501 256 325.001C266 351.801 278.167 409.001 278.5 434.501C278.5 445.001 285.643 442.001 291 434.501C308.5 410.001 306.5 317.001 294.5 315.501Z" fill="url(#paint4_linear)"/>
<path d="M411 319C402.194 314.992 387.112 307.898 380.5 309.5C372 340 386 387.5 380.5 425C378.813 436.5 386 442.363 390 434C406.5 399.5 422.007 324.009 411 319Z" fill="url(#paint5_linear)"/>
<path d="M394.022 444.987C389.46 424.643 373.023 412.551 365.375 409.047C359.1 419.075 350.549 440.506 366.55 446.006C382.551 451.507 391.532 447.619 394.022 444.987Z" fill="#B9C8F0"/>
<path d="M378.365 499.309C361.674 479.421 360.643 455.373 362.214 445.836C325.82 442.895 298.289 459.253 289.073 467.8C266.984 494.482 289.511 514.277 303.536 520.839C350.547 545.979 373.01 516.961 378.365 499.309Z" fill="url(#paint6_linear)"/>
<path d="M227.631 462.134C219.767 488.009 238.439 525.479 248.758 540.979C265.07 554.326 289.308 559.425 299.388 560.307C309.19 559.668 348.411 563.989 366.797 566.229C384.494 568.143 389.278 542.952 389.458 530.117C391.361 524.341 390.16 515.759 389.322 512.19C388.062 509.817 385.314 501.853 384.098 498.168C382.551 488.95 378.227 488.144 376.259 488.893C374.102 496.578 366.781 506.578 363.39 510.618C346.488 533.126 314.867 520.972 301.17 512.082C298.374 509.966 295.184 503.154 293.939 500.012C281.064 478.047 301.259 469.465 312.967 467.92C321.251 464.233 356.935 453.244 373.741 448.21C349.055 398.645 298.355 403.299 276.091 411.821C233.003 418.619 225.831 448.195 227.631 462.134Z" fill="#444444"/>
<path d="M275.145 451.11C284.371 434.065 308.156 399.656 329.481 398.375C346.014 397.973 378.928 405.028 390.651 434.609C392.7 438.876 393.563 442.71 393.703 445.22C392.976 441.396 391.942 437.866 390.651 434.609C387.474 427.991 381.448 420.33 370.854 414.948C369.572 413.727 367.243 413.113 368.182 420.423C370.512 430.742 369.663 454.71 347.629 468.028C341.745 471.827 321.017 478.883 285.184 476.71C275.421 477.63 259.746 473.798 275.145 451.11Z" fill="url(#paint7_linear)"/>
<path d="M281.561 436.93C278.17 444.966 264.921 461.501 258.72 468.764C248.771 483.07 263.114 494.952 273.527 489.615C279.087 485.954 296.481 481.994 304.482 480.472C310.186 480.233 308.311 477.616 306.661 476.337C301.441 472.618 293.345 471.152 289.95 470.884C278.843 469.732 277.647 460.324 278.438 455.763C278.644 452.713 282.722 443.856 284.736 439.808C286.915 431.401 283.527 434.387 281.561 436.93Z" fill="#646464"/>
<path d="M229.799 443.139C224.14 451.171 205.736 436.524 199.236 407C172.786 440.181 188.736 458.139 222.736 536.139C235.136 540.539 246.902 534.306 251.236 530.639C234.06 510.639 235.236 460.639 229.799 443.139Z" fill="#FF5400"/>
<path d="M269.075 538.15C264.35 531.678 251.96 529.76 244.538 529.61C232.543 522.778 226.515 530.959 225 535.903C260.442 605.573 309.061 558.377 289.522 558.377C282.707 558.377 278.617 554.482 276.345 552.084C279.98 551.365 279.677 547.59 279.072 545.792C276.345 544.743 273.801 544.623 269.075 538.15Z" fill="url(#paint8_linear)"/>
<path d="M325 237C318.931 239.184 303.667 240.333 296.5 240C302.1 255.2 298.833 268.333 296.5 273C314 277.5 327.5 292 341.5 292C352 292 362.5 278 375 273C375 267 373 254.5 381 240C375 242.4 359.5 241.138 352 237C337.5 229 337.5 232.5 325 237Z" fill="url(#paint9_linear)"/>
<path d="M299.5 242C296 239.5 286.5 231 282.5 221M378 242C380 241.167 384.9 236.5 388.5 224.5" stroke="#EEEEEE"/>
</g>
</g>
<defs>
<filter id="filter0_i" x="0" y="0" width="632" height="680" filterUnits="userSpaceOnUse" color-interpolation-filters="sRGB">
<feFlood flood-opacity="0" result="BackgroundImageFix"/>
<feBlend mode="normal" in="SourceGraphic" in2="BackgroundImageFix" result="shape"/>
<feColorMatrix in="SourceAlpha" type="matrix" values="0 0 0 0 0 0 0 0 0 0 0 0 0 0 0 0 0 0 127 0" result="hardAlpha"/>
<feOffset dy="10"/>
<feGaussianBlur stdDeviation="5"/>
<feComposite in2="hardAlpha" operator="arithmetic" k2="-1" k3="1"/>
<feColorMatrix type="matrix" values="0 0 0 0 0 0 0 0 0 0 0 0 0 0 0 0 0 0 0.25 0"/>
<feBlend mode="normal" in2="shape" result="effect1_innerShadow"/>
</filter>
<filter id="filter1_d" x="67" y="97.5" width="516" height="811.5" filterUnits="userSpaceOnUse" color-interpolation-filters="sRGB">
<feFlood flood-opacity="0" result="BackgroundImageFix"/>
<feColorMatrix in="SourceAlpha" type="matrix" values="0 0 0 0 0 0 0 0 0 0 0 0 0 0 0 0 0 0 127 0"/>
<feOffset dx="-20" dy="2"/>
<feGaussianBlur stdDeviation="20"/>
<feColorMatrix type="matrix" values="0 0 0 0 0 0 0 0 0 0 0 0 0 0 0 0 0 0 0.25 0"/>
<feBlend mode="normal" in2="BackgroundImageFix" result="effect1_dropShadow"/>
<feBlend mode="normal" in="SourceGraphic" in2="effect1_dropShadow" result="shape"/>
</filter>
<linearGradient id="paint0_linear" x1="336" y1="274" x2="335.5" y2="308" gradientUnits="userSpaceOnUse">
<stop stop-color="#DF9057"/>
<stop offset="1" stop-color="#F5AB75"/>
</linearGradient>
<linearGradient id="paint1_linear" x1="354.04" y1="564.844" x2="368.025" y2="574.097" gradientUnits="userSpaceOnUse">
<stop/>
<stop offset="1" stop-opacity="0"/>
</linearGradient>
<linearGradient id="paint2_linear" x1="404.5" y1="366.5" x2="415.5" y2="369.5" gradientUnits="userSpaceOnUse">
<stop/>
<stop offset="1" stop-opacity="0"/>
</linearGradient>
<linearGradient id="paint3_linear" x1="542.5" y1="312" x2="542.5" y2="376" gradientUnits="userSpaceOnUse">
<stop stop-color="#EEEEEE"/>
<stop offset="1" stop-color="#E9E5E5"/>
</linearGradient>
<linearGradient id="paint4_linear" x1="264" y1="362" x2="304" y2="359" gradientUnits="userSpaceOnUse">
<stop stop-color="#E9E7E7"/>
<stop offset="1" stop-color="white"/>
</linearGradient>
<linearGradient id="paint5_linear" x1="378" y1="358" x2="413" y2="359" gradientUnits="userSpaceOnUse">
<stop stop-color="#E9E7E7"/>
<stop offset="1" stop-color="#F8F7F7"/>
</linearGradient>
<linearGradient id="paint6_linear" x1="363.239" y1="478.692" x2="288.936" y2="502.287" gradientUnits="userSpaceOnUse">
<stop stop-color="#37474F"/>
<stop offset="1" stop-color="#181818"/>
</linearGradient>
<linearGradient id="paint7_linear" x1="321.688" y1="399.56" x2="334.102" y2="473.55" gradientUnits="userSpaceOnUse">
<stop stop-color="#E8EEFF"/>
<stop offset="1" stop-color="#CEDCFF"/>
</linearGradient>
<linearGradient id="paint8_linear" x1="259.5" y1="527" x2="259.5" y2="574" gradientUnits="userSpaceOnUse">
<stop stop-color="#EEEEEE"/>
<stop offset="1" stop-color="#E9E5E5"/>
</linearGradient>
<linearGradient id="paint9_linear" x1="338.75" y1="232.224" x2="338.75" y2="292" gradientUnits="userSpaceOnUse">
<stop stop-color="#F1EFEF"/>
<stop offset="1" stop-color="#FAFAFA"/>
</linearGradient>
</defs>
</svg>
