<svg width="66" height="25" viewBox="0 0 66 25" fill="none" xmlns="http://www.w3.org/2000/svg">
<path d="M28.6033 2.38772L28.2614 4.116H31.4806L31.2812 5.13208H28.0525L27.6916 6.96482H31.4521L31.2432 7.99989H26.2577L27.5872 1.35265H32.4397L32.2308 2.38772H28.6033Z" fill="white"/>
<path d="M36.2753 2.87202C36.8451 2.87202 37.2946 3.02079 37.6238 3.31833C37.9593 3.61587 38.1271 4.03687 38.1271 4.58131C38.1271 4.73324 38.1049 4.93583 38.0606 5.18905L37.5003 7.99989H36.3133L36.8641 5.21754C36.8894 5.09093 36.9021 4.96115 36.9021 4.8282C36.9021 4.21413 36.5634 3.90709 35.886 3.90709C35.4492 3.90709 35.0883 4.03053 34.8034 4.27743C34.5186 4.518 34.3255 4.88202 34.2242 5.36948L33.6924 7.99989H32.5054L33.512 2.92899H34.642L34.5281 3.48926C34.9839 3.07776 35.5663 2.87202 36.2753 2.87202Z" fill="white"/>
<path d="M40.6774 6.30009C40.6648 6.40139 40.6584 6.47419 40.6584 6.5185C40.6584 6.89835 40.8579 7.08827 41.2567 7.08827C41.5036 7.08827 41.7252 7.02179 41.9214 6.88885L42.1303 7.76249C41.8075 7.96507 41.3991 8.06636 40.9053 8.06636C40.4685 8.06636 40.1172 7.94608 39.8513 7.70551C39.5854 7.46494 39.4524 7.13258 39.4524 6.70842C39.4524 6.56915 39.4651 6.4362 39.4904 6.30959L39.9747 3.91658H39.1486L39.3385 2.96698H40.1646L40.3925 1.80846H41.5796L41.3422 2.96698H42.7096L42.5197 3.91658H41.1522L40.6774 6.30009Z" fill="white"/>
<path d="M45.0345 3.58422C45.2561 3.32466 45.5251 3.14107 45.8417 3.03345C46.1645 2.92583 46.5475 2.87202 46.9907 2.87202L46.7723 4.00205C46.6646 3.98305 46.5665 3.97356 46.4779 3.97356C45.5093 3.97356 44.9237 4.48318 44.7211 5.50242L44.2178 7.99989H43.0308L44.0374 2.92899H45.1674L45.0345 3.58422Z" fill="white"/>
<path d="M52.234 5.09409C52.234 5.34099 52.2087 5.58156 52.158 5.81579H48.1317C48.1507 6.64512 48.6381 7.05978 49.5941 7.05978C49.8853 7.05978 50.1575 7.01546 50.4107 6.92683C50.664 6.83187 50.8792 6.70209 51.0565 6.5375L51.5503 7.36365C51.2907 7.59789 50.9773 7.77515 50.6102 7.89543C50.2493 8.00939 49.8695 8.06636 49.4706 8.06636C48.9642 8.06636 48.521 7.97457 48.1412 7.79098C47.7677 7.60739 47.4796 7.34783 47.277 7.0123C47.0745 6.67044 46.9732 6.27794 46.9732 5.83479C46.9732 5.27135 47.0966 4.7649 47.3435 4.31542C47.5967 3.85961 47.9449 3.50509 48.3881 3.25186C48.8376 2.99863 49.3409 2.87202 49.898 2.87202C50.607 2.87202 51.1736 3.07143 51.5978 3.47027C52.0219 3.86277 52.234 4.40405 52.234 5.09409ZM49.841 3.82162C49.4421 3.82162 49.1003 3.92924 48.8154 4.14449C48.5369 4.35973 48.3438 4.65411 48.2361 5.02762H51.1419C51.1483 4.64778 51.0312 4.3534 50.7906 4.14449C50.5564 3.92924 50.2398 3.82162 49.841 3.82162Z" fill="white"/>
<path d="M58.8541 2.92899L57.9899 7.23071C57.8 8.16132 57.4487 8.83871 56.9359 9.26287C56.4231 9.69335 55.7299 9.9086 54.8562 9.9086C53.8623 9.9086 53.071 9.67753 52.4822 9.21539L53.0995 8.32276C53.2957 8.49368 53.5553 8.62979 53.8781 8.73109C54.2073 8.83871 54.5587 8.89252 54.9322 8.89252C55.4766 8.89252 55.8945 8.77224 56.1857 8.53167C56.4769 8.2911 56.67 7.92392 56.7649 7.43013L56.8124 7.18323C56.3566 7.57573 55.8027 7.77198 55.1506 7.77198C54.7138 7.77198 54.3213 7.68652 53.9731 7.51559C53.6312 7.34466 53.3622 7.10093 53.1659 6.78439C52.976 6.46786 52.8811 6.09751 52.8811 5.67335C52.8811 5.15424 53.0045 4.6826 53.2514 4.25844C53.4983 3.82795 53.8402 3.48926 54.277 3.24236C54.7201 2.99546 55.2139 2.87202 55.7584 2.87202C56.1572 2.87202 56.5149 2.94798 56.8314 3.09992C57.148 3.24553 57.3885 3.4671 57.5531 3.76465L57.7146 2.92899H58.8541ZM55.4165 6.7654C55.752 6.7654 56.0496 6.6926 56.3091 6.54699C56.575 6.39505 56.7808 6.18931 56.9264 5.92975C57.0783 5.66386 57.1543 5.36631 57.1543 5.03712C57.1543 4.67627 57.0372 4.39455 56.8029 4.19197C56.5687 3.98305 56.2427 3.8786 55.8248 3.8786C55.4893 3.8786 55.1886 3.95457 54.9227 4.1065C54.6568 4.25211 54.4479 4.45786 54.296 4.72375C54.1504 4.98331 54.0776 5.27768 54.0776 5.60688C54.0776 5.9614 54.1947 6.24312 54.4289 6.45203C54.6695 6.66094 54.9987 6.7654 55.4165 6.7654Z" fill="white"/>
<path d="M65.3621 2.92899L64.3555 7.99989H63.2255L63.3299 7.47761C62.8868 7.87011 62.336 8.06636 61.6776 8.06636C61.2598 8.06636 60.8799 7.97773 60.5381 7.80047C60.2025 7.62321 59.9367 7.36682 59.7404 7.03129C59.5442 6.68943 59.446 6.2906 59.446 5.83479C59.446 5.27135 59.5695 4.7649 59.8164 4.31542C60.0696 3.85961 60.4115 3.50509 60.8419 3.25186C61.2788 2.99863 61.7662 2.87202 62.3043 2.87202C63.1147 2.87202 63.6908 3.14107 64.0326 3.67918L64.1751 2.92899H65.3621ZM61.9815 7.05028C62.317 7.05028 62.6145 6.97115 62.8741 6.81288C63.14 6.64828 63.3489 6.42354 63.5008 6.13866C63.6528 5.84745 63.7287 5.51825 63.7287 5.15107C63.7287 4.75224 63.6116 4.44203 63.3774 4.22046C63.1432 3.99255 62.814 3.8786 62.3898 3.8786C62.0543 3.8786 61.7536 3.9609 61.4877 4.1255C61.2281 4.28376 61.0224 4.5085 60.8704 4.79972C60.7185 5.0846 60.6425 5.41063 60.6425 5.77781C60.6425 6.17665 60.7596 6.49002 60.9939 6.71792C61.2281 6.9395 61.5573 7.05028 61.9815 7.05028Z" fill="white"/>
<path d="M31.1292 24.2658C30.0277 24.2658 28.9831 24.1328 27.9955 23.8669C27.0079 23.6011 26.2039 23.2592 25.5835 22.8414L27.0649 20.0305C27.736 20.461 28.4513 20.7902 29.211 21.0181C29.9707 21.2334 30.7304 21.341 31.4901 21.341C32.2118 21.341 32.7689 21.2397 33.1614 21.0371C33.5665 20.8219 33.7691 20.5307 33.7691 20.1635C33.7691 19.8469 33.5855 19.6 33.2183 19.4228C32.8638 19.2455 32.3067 19.0556 31.547 18.853C30.6861 18.6251 29.9707 18.3972 29.4009 18.1693C28.8312 17.9287 28.3374 17.5679 27.9195 17.0868C27.5144 16.6056 27.3118 15.9726 27.3118 15.1875C27.3118 14.2379 27.5714 13.4086 28.0905 12.6996C28.6096 11.9779 29.3503 11.4208 30.3126 11.0283C31.2748 10.6358 32.4017 10.4395 33.6931 10.4395C34.6428 10.4395 35.5291 10.5408 36.352 10.7434C37.175 10.9333 37.8841 11.2119 38.4792 11.579L37.1117 14.3709C36.5926 14.0417 36.0165 13.7948 35.3834 13.6302C34.763 13.4529 34.1236 13.3643 33.4652 13.3643C32.7182 13.3643 32.1295 13.4846 31.699 13.7251C31.2812 13.9657 31.0722 14.2759 31.0722 14.6558C31.0722 14.985 31.2558 15.2382 31.623 15.4154C31.9902 15.5927 32.56 15.7826 33.3323 15.9852C34.1933 16.2005 34.9023 16.422 35.4594 16.6499C36.0292 16.8778 36.5166 17.226 36.9218 17.6945C37.327 18.163 37.5296 18.7771 37.5296 19.5367C37.5296 20.4737 37.2637 21.303 36.7319 22.0247C36.2128 22.7337 35.4657 23.2845 34.4908 23.677C33.5285 24.0695 32.408 24.2658 31.1292 24.2658Z" fill="white"/>
<path d="M45.0782 24.2658C43.7361 24.2658 42.5649 24.0189 41.5646 23.5251C40.5771 23.0313 39.811 22.3412 39.2666 21.4549C38.7348 20.5686 38.4689 19.5557 38.4689 18.4162C38.4689 16.8968 38.8171 15.5294 39.5135 14.3139C40.2225 13.0984 41.2038 12.1488 42.4573 11.4651C43.7234 10.7814 45.1605 10.4395 46.7685 10.4395C48.1106 10.4395 49.2754 10.6864 50.263 11.1802C51.2633 11.674 52.0293 12.364 52.5611 13.2503C53.1055 14.1366 53.3777 15.1496 53.3777 16.2891C53.3777 17.8085 53.0232 19.1759 52.3142 20.3914C51.6178 21.6069 50.6366 22.5565 49.3704 23.2402C48.1169 23.9239 46.6862 24.2658 45.0782 24.2658ZM45.4011 21.1511C46.2367 21.1511 46.9711 20.9422 47.6041 20.5243C48.2372 20.1065 48.7247 19.5494 49.0665 18.853C49.4084 18.144 49.5793 17.3653 49.5793 16.517C49.5793 15.618 49.3008 14.9027 48.7437 14.3709C48.1992 13.8264 47.4332 13.5542 46.4456 13.5542C45.61 13.5542 44.8756 13.7631 44.2425 14.181C43.6095 14.5988 43.122 15.1622 42.7801 15.8713C42.4383 16.5676 42.2674 17.34 42.2674 18.1883C42.2674 19.0873 42.5396 19.809 43.084 20.3534C43.6411 20.8852 44.4135 21.1511 45.4011 21.1511Z" fill="white"/>
<path d="M58.348 24.2658C57.2465 24.2658 56.2019 24.1328 55.2143 23.8669C54.2268 23.6011 53.4228 23.2592 52.8023 22.8414L54.2837 20.0305C54.9548 20.461 55.6702 20.7902 56.4298 21.0181C57.1895 21.2334 57.9492 21.341 58.7089 21.341C59.4306 21.341 59.9877 21.2397 60.3802 21.0371C60.7854 20.8219 60.9879 20.5307 60.9879 20.1635C60.9879 19.8469 60.8044 19.6 60.4372 19.4228C60.0827 19.2455 59.5256 19.0556 58.7659 18.853C57.9049 18.6251 57.1895 18.3972 56.6198 18.1693C56.05 17.9287 55.5562 17.5679 55.1384 17.0868C54.7332 16.6056 54.5306 15.9726 54.5306 15.1875C54.5306 14.2379 54.7902 13.4086 55.3093 12.6996C55.8284 11.9779 56.5691 11.4208 57.5314 11.0283C58.4937 10.6358 59.6205 10.4395 60.912 10.4395C61.8616 10.4395 62.7479 10.5408 63.5709 10.7434C64.3939 10.9333 65.1029 11.2119 65.698 11.579L64.3306 14.3709C63.8114 14.0417 63.2354 13.7948 62.6023 13.6302C61.9819 13.4529 61.3425 13.3643 60.6841 13.3643C59.937 13.3643 59.3483 13.4846 58.9178 13.7251C58.5 13.9657 58.2911 14.2759 58.2911 14.6558C58.2911 14.985 58.4747 15.2382 58.8418 15.4154C59.209 15.5927 59.7788 15.7826 60.5511 15.9852C61.4121 16.2005 62.1211 16.422 62.6782 16.6499C63.248 16.8778 63.7355 17.226 64.1406 17.6945C64.5458 18.163 64.7484 18.7771 64.7484 19.5367C64.7484 20.4737 64.4825 21.303 63.9507 22.0247C63.4316 22.7337 62.6846 23.2845 61.7096 23.677C60.7474 24.0695 59.6268 24.2658 58.348 24.2658Z" fill="white"/>
<path d="M19.4132 10.1986C20.8476 11.0272 20.8476 13.0977 19.4132 13.9263L3.24301 23.2669C1.29935 24.3896 -0.849893 22.1604 0.343129 20.2591L4.76838 13.2064C5.20731 12.5069 5.20731 11.6179 4.76838 10.9184L0.343125 3.86579C-0.849896 1.96445 1.29934 -0.264808 3.24301 0.857944L19.4132 10.1986Z" fill="white"/>
</svg>
