<svg width="68" height="17" viewBox="0 0 68 17" fill="none" xmlns="http://www.w3.org/2000/svg">
<path fill-rule="evenodd" clip-rule="evenodd" d="M38.4308 0C41.8392 0 44.2013 2.76475 43.7067 6.17314C43.212 9.58152 40.0446 12.3463 36.6362 12.3463C33.2279 12.3463 30.8658 9.58152 31.3604 6.17314C31.855 2.76158 35.0224 0 38.4308 0ZM37.9489 3.32912C39.5183 3.32912 40.6058 4.60053 40.3775 6.17314C40.1493 7.74258 38.6908 9.01716 37.1213 9.01716C35.5519 9.01716 34.4644 7.74575 34.6927 6.17314C34.9209 4.6037 36.3763 3.32912 37.9489 3.32912Z" fill="#232B2A"/>
<path fill-rule="evenodd" clip-rule="evenodd" d="M17.9688 11.7347H21.5198L22.861 7.72711L26.1235 11.7347H30.2453L27.2174 7.54639C31.9511 7.56541 32.3981 0.624988 28.4032 0.621817L21.6879 0.612305L20.7747 3.33901H27.2142C28.0227 3.33901 27.712 4.82602 26.9257 4.82602H20.2801L17.9688 11.7347Z" fill="#232B2A"/>
<path fill-rule="evenodd" clip-rule="evenodd" d="M56.4526 0.628196L48.7862 0.612344C44.0525 0.59332 43.6054 7.53057 47.6004 7.53691H47.8952L50.4824 7.54008C51.2212 7.60667 50.9073 9.02392 50.14 9.02392H43.374L42.5908 11.7316L44.4678 11.7348H45.8121L49.3061 11.7379L50.4317 11.7411C55.1654 11.7601 55.6124 4.81972 51.6175 4.81655H51.3226L48.7323 4.81338C47.9935 4.74679 48.3074 3.32954 49.0747 3.32954H55.8407L56.4526 0.628196Z" fill="#232B2A"/>
<path fill-rule="evenodd" clip-rule="evenodd" d="M67.9995 0.628196L60.333 0.612344C55.5993 0.59332 55.1523 7.53057 59.1472 7.53691H59.4421L62.0293 7.54008C62.768 7.60667 62.4542 9.02392 61.6869 9.02392H54.9208L54.1377 11.7316L56.0147 11.7348H57.359L60.853 11.7379L61.9786 11.7411C66.7123 11.7601 67.1593 4.81972 63.1644 4.81655H62.8695L60.2791 4.81338C59.5404 4.74679 59.8543 3.32954 60.6216 3.32954H67.3876L67.9995 0.628196Z" fill="#232B2A"/>
<path fill-rule="evenodd" clip-rule="evenodd" d="M13.2344 11.7347H16.7854L19.0968 4.82602H15.5457L13.2344 11.7347ZM19.5914 3.33901L20.5045 0.612305H16.9535L16.0403 3.33901H19.5914Z" fill="#232B2A"/>
<path fill-rule="evenodd" clip-rule="evenodd" d="M5.33535 0.633789H15.792L14.7583 3.72511H5.59217L3.42983 10.0409L5.39876 12.254L8.7691 10.0409L9.3303 8.49368H6.88894L7.94475 5.4087H14.2003L12.4628 10.6021C12.2599 11.0872 11.9429 11.5311 11.4261 11.8894L4.57441 16.2902L0.297284 10.7702C-0.0483101 10.1804 -0.10221 9.49876 0.186314 8.71879L2.29793 2.53614C2.88132 0.85573 3.59787 0.633789 5.33535 0.633789Z" fill="#E52530"/>
</svg>
